<svg width="512" height="512" viewBox="0 0 512 512" fill="none" xmlns="http://www.w3.org/2000/svg">
  <defs>
    <linearGradient id="blueGradient" x1="0%" y1="0%" x2="100%" y2="100%">
      <stop offset="0%" style="stop-color:#00C6FF" />
      <stop offset="100%" style="stop-color:#0072FF" />
    </linearGradient>
  </defs>
  <rect width="512" height="512" rx="112" fill="url(#blueGradient)"/>
  <path d="M160 120C160 108.954 168.954 100 180 100H332C343.046 100 352 108.954 352 120V340C352 340 352 370 320 370C288 370 240 340 240 340C240 340 200 310 160 340V120Z" fill="white"/>
  <path d="M230 230L270 270L340 180" stroke="#0072FF" stroke-width="24" stroke-linecap="round" stroke-linejoin="round"/>
  <rect x="190" y="150" width="100" height="12" rx="6" fill="#0072FF" fill-opacity="0.2"/>
  <rect x="190" y="180" width="60" height="12" rx="6" fill="#0072FF" fill-opacity="0.2"/>
</svg>
